<svg width="262" height="271" viewBox="0 0 262 271" fill="none" xmlns="http://www.w3.org/2000/svg">
<path d="M131.144 270.782C203.247 270.782 261.698 210.47 261.698 136.071C261.698 61.6721 203.247 1.35985 131.144 1.35985C59.0409 1.35985 0.589783 61.6721 0.589783 136.071C0.589783 210.47 59.0409 270.782 131.144 270.782Z" fill="black"/>
<path d="M217.588 136.071L86.9169 202.32V136.071V69.8211L217.588 136.071Z" fill="url(#paint0_linear)"/>
<path d="M209.733 136.071L94.7527 194.376V136.071V77.7655L209.733 136.071Z" fill="white"/>
<path opacity="0.2" d="M11.2711 151.537C11.2922 123.814 19.6001 96.7713 35.0618 74.0982C50.5236 51.4251 72.3866 34.2247 97.6695 24.8425C122.952 15.4604 150.424 14.3532 176.339 21.6719C202.254 28.9906 225.351 44.3791 242.48 65.7387C233.149 49.9052 220.754 36.2276 206.069 25.5607C191.384 14.8937 174.724 7.46677 157.131 3.74396C139.538 0.0211366 121.39 0.0824779 103.822 3.92413C86.2528 7.76578 69.6407 15.3052 55.0235 26.0711C40.4064 36.8371 28.0982 50.5982 18.8684 66.4945C9.63866 82.3907 3.68558 100.08 1.38125 118.458C-0.923086 136.836 0.470873 155.506 5.47597 173.303C10.4811 191.099 18.9897 207.64 30.4702 221.89C17.8795 200.726 11.2328 176.37 11.2711 151.537Z" fill="white"/>
<defs>
<linearGradient id="paint0_linear" x1="152.253" y1="202.32" x2="152.253" y2="69.8215" gradientUnits="userSpaceOnUse">
<stop stop-opacity="0.12"/>
<stop offset="0.55" stop-opacity="0.09"/>
<stop offset="1" stop-opacity="0.02"/>
</linearGradient>
</defs>
</svg>
