<svg width="280" height="302" viewBox="0 0 280 302" fill="none" xmlns="http://www.w3.org/2000/svg">
<path d="M13.2484 39.7421H265.914C269.204 39.7421 272.359 40.9979 274.685 43.2331C277.011 45.4683 278.317 48.5 278.317 51.6611V70.5933H0.845322V51.6611C0.845324 48.5 2.15207 45.4683 4.47809 43.2331C6.80411 40.9979 9.95888 39.7421 13.2484 39.7421V39.7421Z" fill="#3F3D56" fill-opacity="0.4"/>
<path d="M261.119 37.5384C259.87 37.5437 258.631 37.7464 257.452 38.1384C257.047 36.5737 256.06 35.2055 254.677 34.2921C253.295 33.3787 251.612 32.9834 249.947 33.1807C248.281 33.3781 246.749 34.1545 245.639 35.3633C244.528 36.5721 243.917 38.1297 243.92 39.7421C243.92 39.775 243.929 39.8056 243.929 39.8384C243.069 39.9167 242.221 40.0856 241.399 40.3421C241.166 39.4524 240.744 38.6187 240.158 37.8939C239.573 37.169 238.838 36.5687 237.999 36.1309C240.203 34.9599 241.946 33.1263 242.961 30.9113C248.572 30.8236 253.093 26.9261 253.093 22.1128C253.093 17.2446 248.473 13.2982 242.773 13.2982C241.525 13.3035 240.286 13.5062 239.106 13.8982C238.895 13.0316 238.502 12.2151 237.953 11.4981C237.404 10.7811 236.709 10.1785 235.911 9.72663C235.113 9.27476 234.228 8.98298 233.309 8.86894C232.39 8.7549 231.457 8.82094 230.566 9.0631C229.674 9.30525 228.843 9.71851 228.122 10.2779C227.402 10.8372 226.806 11.5311 226.373 12.3177C225.939 13.1042 225.675 13.9671 225.598 14.8543C225.521 15.7414 225.631 16.6344 225.923 17.4793C225.649 17.6626 225.393 17.8686 225.137 18.0734C223.84 17.0006 222.155 16.4618 220.448 16.5735C219.566 14.1398 217.821 12.082 215.519 10.7605C213.216 9.43901 210.504 8.93813 207.856 9.34562C205.208 9.7531 202.794 11.043 201.036 12.9892C199.278 14.9355 198.29 17.414 198.243 19.9906C197.322 20.0606 196.414 20.2347 195.536 20.5092C195.438 20.1363 195.305 19.7724 195.141 19.4216C196.046 18.6542 196.773 17.7125 197.276 16.6577C197.778 15.6028 198.044 14.4583 198.057 13.2982C198.057 8.42999 193.437 4.48361 187.738 4.48361C186.489 4.48892 185.25 4.69163 184.07 5.08362C183.859 4.21694 183.467 3.40045 182.917 2.68347C182.368 1.96649 181.674 1.36387 180.876 0.911988C180.077 0.460111 179.192 0.168359 178.273 0.0543197C177.355 -0.0597193 176.421 0.00632334 175.53 0.248478C174.638 0.490632 173.807 0.903887 173.087 1.46326C172.366 2.02263 171.771 2.71652 171.337 3.50308C170.903 4.28963 170.639 5.15252 170.562 6.03965C170.485 6.92679 170.595 7.81978 170.887 8.6647C169.443 9.62831 168.25 10.8988 167.4 12.3776C166.55 13.8563 166.066 15.5035 165.986 17.1911C165.889 17.2739 165.778 17.3409 165.686 17.4289C165.858 16.7997 165.947 16.1523 165.953 15.5019C165.953 10.6336 161.333 6.68726 155.633 6.68726C154.385 6.69257 153.146 6.89528 151.966 7.28728C151.755 6.42059 151.362 5.60411 150.813 4.88712C150.264 4.17014 149.57 3.56752 148.771 3.11564C147.973 2.66377 147.088 2.37201 146.169 2.25797C145.25 2.14394 144.317 2.20998 143.426 2.45213C142.534 2.69429 141.703 3.10754 140.982 3.66691C140.262 4.22628 139.667 4.92018 139.233 5.70673C138.799 6.49328 138.535 7.35618 138.458 8.24331C138.381 9.13044 138.491 10.0234 138.783 10.8684C137.261 11.8792 136.016 13.23 135.157 14.8047C134.298 16.3794 133.849 18.131 133.849 19.9092C133.849 21.6874 134.298 23.439 135.157 25.0137C136.016 26.5884 137.261 27.9391 138.783 28.95C138.319 30.2306 138.319 31.6244 138.783 32.9049C137.634 33.6754 136.64 34.6399 135.849 35.7516C135.425 34.2715 134.474 32.9809 133.163 32.1042C131.851 31.2274 130.261 30.8197 128.67 30.9519C127.078 31.0841 125.585 31.7478 124.449 32.8279C123.314 33.9079 122.607 35.336 122.454 36.8642C121.534 36.3465 120.541 35.9609 119.505 35.7196C121.363 34.5412 122.826 32.8712 123.717 30.9113C129.327 30.8236 133.848 26.9261 133.848 22.1128C133.848 17.2446 129.228 13.2982 123.529 13.2982C122.281 13.3035 121.042 13.5062 119.862 13.8982C119.65 13.0316 119.258 12.2151 118.709 11.4981C118.16 10.7811 117.465 10.1785 116.667 9.72661C115.869 9.27473 114.984 8.98298 114.065 8.86894C113.146 8.7549 112.213 8.82094 111.321 9.0631C110.43 9.30525 109.599 9.71848 108.878 10.2779C108.158 10.8372 107.562 11.5311 107.128 12.3177C106.694 13.1042 106.431 13.9671 106.354 14.8543C106.276 15.7414 106.387 16.6344 106.679 17.4793C106.532 17.5776 106.399 17.6933 106.257 17.7979C105.899 17.7659 105.552 17.7055 105.184 17.7055C103.936 17.7108 102.697 17.9135 101.517 18.3055C101.473 18.1393 101.402 17.985 101.346 17.824C101.568 16.843 101.55 15.8258 101.294 14.8525C101.038 13.8791 100.551 12.976 99.8704 12.2142C99.1899 11.4524 98.3349 10.8526 97.3725 10.4619C96.4101 10.0712 95.3666 9.90026 94.3238 9.96249C93.7267 8.36453 92.753 6.92095 91.4789 5.74466C90.2048 4.56838 88.6648 3.69127 86.9794 3.18192C85.2939 2.67257 83.5087 2.54481 81.7634 2.8086C80.018 3.07238 78.3598 3.72058 76.9184 4.7025C75.477 5.68443 74.2915 6.97345 73.4547 8.46878C72.6178 9.9641 72.1523 11.6252 72.0944 13.3222C72.0365 15.0191 72.388 16.7059 73.1212 18.2507C73.8544 19.7954 74.9495 21.1563 76.3209 22.2268C75.5319 22.3137 74.754 22.4765 73.9989 22.7128C73.7278 21.6384 73.1781 20.6474 72.4011 19.8321C71.6241 19.0168 70.6451 18.4038 69.5551 18.05C68.4652 17.6962 67.2998 17.6132 66.1675 17.8088C65.0352 18.0044 63.9728 18.4721 63.0792 19.1685C62.0573 18.0021 60.7787 17.0681 59.3356 16.4341C57.8926 15.8 56.3211 15.4816 54.7345 15.5019C53.4861 15.5072 52.2472 15.7099 51.0673 16.1019C50.8556 15.2352 50.4634 14.4187 49.9143 13.7017C49.3651 12.9848 48.6705 12.3822 47.8723 11.9303C47.0742 11.4784 46.189 11.1866 45.2702 11.0726C44.3515 10.9586 43.4182 11.0246 42.5267 11.2668C41.6352 11.5089 40.8041 11.9222 40.0834 12.4815C39.3627 13.0409 38.7675 13.7348 38.3336 14.5213C37.8997 15.3079 37.6362 16.1708 37.5589 17.0579C37.4816 17.9451 37.5922 18.8381 37.884 19.683C36.362 20.6941 35.118 22.045 34.2585 23.6196C33.3991 25.1942 32.9499 26.9457 32.9495 28.7238C32.9495 28.758 32.9597 28.7893 32.96 28.8233C31.3339 28.5866 29.6717 28.759 28.1357 29.3238C27.924 28.4572 27.5318 27.6407 26.9826 26.9237C26.4335 26.2068 25.7389 25.6041 24.9407 25.1523C24.1426 24.7004 23.2574 24.4087 22.3386 24.2946C21.4199 24.1806 20.4866 24.2466 19.5952 24.4888C18.7037 24.7309 17.8726 25.1442 17.1519 25.7035C16.4312 26.2629 15.836 26.9568 15.4021 27.7433C14.9682 28.5299 14.7047 29.3928 14.6274 30.2799C14.5501 31.167 14.6607 32.06 14.9524 32.9049C12.7409 34.3436 11.1241 36.4817 10.3831 38.9474C9.64223 41.4131 9.82409 44.0503 10.8971 46.4005C11.9701 48.7506 13.8664 50.665 16.2562 51.8107C18.646 52.9564 21.3781 53.2609 23.9773 52.6712C24.3912 54.9703 25.5565 57.0829 27.3042 58.7025C29.0519 60.3221 31.2911 61.3646 33.697 61.6787C36.1029 61.9928 38.5503 61.5622 40.6843 60.4493C42.8183 59.3364 44.5279 57.5992 45.5651 55.4895C46.5043 57.3993 47.9968 59.0082 49.8636 60.1234C51.7304 61.2386 53.8922 61.8127 56.09 61.7771C58.2878 61.7414 60.4282 61.0974 62.2547 59.9222C64.0812 58.7471 65.5163 57.0907 66.388 55.1515C67.7391 55.1333 69.0762 54.8845 70.3369 54.4169C71.0948 56.5042 72.4909 58.3231 74.3424 59.6354C76.1938 60.9476 78.4144 61.6922 80.7135 61.7716C83.0126 61.851 85.2831 61.2615 87.2278 60.0803C89.1725 58.8991 90.7008 57.1812 91.6127 55.1515C93.2846 55.1196 94.9279 54.7289 96.4224 54.0079C97.4688 55.7852 99.0107 57.2465 100.874 58.2272C102.738 59.2079 104.85 59.6692 106.972 59.559C109.094 59.4489 111.141 58.7716 112.884 57.6036C114.627 56.4356 115.996 54.8232 116.837 52.9479C117.453 52.9334 118.066 52.8718 118.671 52.7635C119.529 54.7632 120.981 56.4757 122.846 57.687C124.711 58.8984 126.906 59.5548 129.156 59.5745C131.407 59.5942 133.614 58.9762 135.502 57.7976C137.389 56.6191 138.873 54.9323 139.769 52.9479C140.67 52.9235 141.564 52.7967 142.434 52.5702C144.738 53.1875 147.188 53.078 149.423 52.2578C151.658 51.4376 153.56 49.9499 154.85 48.0136C154.13 50.697 154.488 53.5428 155.855 55.9833C157.221 58.4239 159.494 60.2797 162.222 61.1805C164.949 62.0814 167.929 61.961 170.568 60.8436C173.207 59.7261 175.311 57.6936 176.46 55.1515C178.131 55.1196 179.775 54.7289 181.269 54.0079C182.316 55.7852 183.858 57.2465 185.721 58.2272C187.585 59.2079 189.697 59.6692 191.819 59.559C193.941 59.4489 195.988 58.7716 197.731 57.6036C199.474 56.4356 200.843 54.8232 201.684 52.9479C203.356 52.9159 205 52.5252 206.494 51.8042C207.301 53.1851 208.41 54.3805 209.746 55.3076C211.082 56.2346 212.612 56.8708 214.23 57.1721C215.847 57.4734 217.514 57.4325 219.113 57.0523C220.713 56.672 222.207 55.9615 223.492 54.9702C223.89 57.0782 224.922 59.0281 226.46 60.5792C227.998 62.1303 229.975 63.2148 232.146 63.6987C234.318 64.1827 236.59 64.045 238.681 63.3027C240.773 62.5603 242.592 61.2458 243.915 59.5213C245.291 60.5349 246.89 61.233 248.59 61.5626C250.29 61.8921 252.045 61.8443 253.723 61.4228C255.4 61.0013 256.955 60.2172 258.27 59.1304C259.584 58.0436 260.623 56.6827 261.306 55.1515C266.917 55.0638 271.438 51.1663 271.438 46.353C271.438 41.4848 266.818 37.5384 261.119 37.5384ZM56.1604 32.9904C56.1484 33.0436 56.14 33.098 56.1287 33.1516C56.045 33.1486 55.9656 33.1311 55.8811 33.1311C55.5384 33.1395 55.1969 33.1725 54.8593 33.2301C54.8779 33.1905 54.9041 33.155 54.9222 33.115C55.337 33.0952 55.7503 33.0536 56.1604 32.9904V32.9904ZM151.966 29.3238C151.933 29.1955 151.876 29.0776 151.835 28.9523C153.585 27.7857 154.965 26.1754 155.821 24.3004C157.329 24.2927 158.818 23.9797 160.192 23.382C161.566 22.7842 162.793 21.915 163.794 20.8311C163.706 21.2531 163.661 21.6825 163.66 22.1129C163.669 22.7853 163.786 23.4523 164.008 24.0903C162.039 25.4094 160.548 27.2871 159.745 29.4605C157.251 28.5277 154.494 28.4792 151.966 29.3238V29.3238ZM220.647 30.1455C220.643 30.0104 220.66 29.8712 220.651 29.7371C220.943 29.7361 221.235 29.717 221.525 29.6801C221.97 31.1059 222.713 32.4292 223.709 33.5689C223.493 33.6273 223.265 33.6624 223.054 33.7311C222.684 32.3142 221.838 31.054 220.647 30.1455V30.1455Z" fill="#F6C700"/>
<path d="M23.9448 50.7603C20.6921 50.7601 17.4734 51.3967 14.4852 52.6314C11.4971 53.8661 8.802 55.673 6.56454 57.9417C4.32707 60.2105 2.59412 62.8935 1.47142 65.8272C0.348726 68.7608 -0.140168 71.8836 0.0345784 75.0048L15.5627 280.199C15.8901 286.08 18.552 291.616 23.0002 295.668C27.4484 299.719 33.3441 301.977 39.4729 301.977H239.69C245.819 301.977 251.714 299.719 256.162 295.668C260.611 291.616 263.272 286.08 263.6 280.199L279.128 75.0048C279.303 71.8836 278.814 68.7608 277.691 65.8272C276.568 62.8935 274.836 60.2105 272.598 57.9417C270.361 55.673 267.666 53.8661 264.677 52.6314C261.689 51.3967 258.47 50.7601 255.218 50.7603H23.9448Z" fill="#3F3D56" fill-opacity="0.4"/>
</svg>
