<svg width="280" height="195" viewBox="0 0 280 195" fill="none" xmlns="http://www.w3.org/2000/svg">
<path d="M13.6671 40.2795H266.333C269.623 40.2795 272.777 41.5352 275.103 43.7705C277.429 46.0057 278.736 49.0373 278.736 52.1984V71.1306H1.26402V52.1984C1.26403 49.0373 2.57077 46.0057 4.89679 43.7705C7.22282 41.5352 10.3776 40.2795 13.6671 40.2795Z" fill="#3F3D56" fill-opacity="0.4"/>
<path d="M261.537 38.0758C260.289 38.0811 259.05 38.2838 257.87 38.6758C257.466 37.1111 256.479 35.7428 255.096 34.8295C253.713 33.9161 252.031 33.5207 250.365 33.7181C248.7 33.9154 247.168 34.6918 246.057 35.9007C244.947 37.1095 244.336 38.6671 244.339 40.2794C244.339 40.3124 244.347 40.3429 244.348 40.3758C243.488 40.4541 242.64 40.623 241.818 40.8794C241.585 39.9897 241.162 39.1561 240.577 38.4312C239.992 37.7064 239.256 37.1061 238.417 36.6682C240.621 35.4973 242.365 33.6636 243.38 31.4487C248.99 31.361 253.511 27.4634 253.511 22.6502C253.511 17.782 248.891 13.8356 243.192 13.8356C241.944 13.8409 240.705 14.0436 239.525 14.4356C239.313 13.5689 238.921 12.7524 238.372 12.0354C237.823 11.3185 237.128 10.7159 236.33 10.264C235.532 9.81211 234.647 9.52033 233.728 9.40629C232.809 9.29225 231.876 9.3583 230.984 9.60045C230.093 9.84261 229.262 10.2559 228.541 10.8152C227.82 11.3746 227.225 12.0685 226.791 12.855C226.357 13.6416 226.094 14.5045 226.017 15.3916C225.939 16.2788 226.05 17.1717 226.342 18.0167C226.068 18.2 225.812 18.4059 225.556 18.6108C224.258 17.538 222.574 16.9992 220.866 17.1108C219.984 14.6772 218.239 12.6194 215.937 11.2979C213.635 9.97637 210.922 9.47549 208.275 9.88297C205.627 10.2905 203.212 11.5803 201.455 13.5266C199.697 15.4728 198.708 17.9514 198.661 20.5279C197.741 20.5979 196.833 20.772 195.955 21.0466C195.856 20.6737 195.724 20.3097 195.559 19.959C196.465 19.1915 197.192 18.2499 197.694 17.195C198.197 16.1401 198.463 14.9956 198.476 13.8356C198.476 8.96734 193.856 5.02096 188.156 5.02096C186.908 5.02627 185.669 5.22898 184.489 5.62097C184.278 4.75429 183.885 3.93781 183.336 3.22082C182.787 2.50384 182.092 1.90122 181.294 1.44934C180.496 0.997464 179.611 0.705712 178.692 0.591673C177.773 0.477634 176.84 0.543677 175.949 0.785831C175.057 1.02799 174.226 1.44124 173.505 2.00061C172.785 2.55998 172.189 3.25388 171.755 4.04043C171.322 4.82698 171.058 5.68987 170.981 6.57701C170.904 7.46414 171.014 8.35713 171.306 9.20205C169.862 10.1657 168.669 11.4362 167.819 12.9149C166.969 14.3937 166.485 16.0408 166.405 17.7284C166.308 17.8113 166.197 17.8783 166.105 17.9662C166.276 17.337 166.366 16.6897 166.371 16.0392C166.371 11.171 161.751 7.22462 156.052 7.22462C154.804 7.22992 153.565 7.43264 152.385 7.82463C152.173 6.95795 151.781 6.14146 151.232 5.42448C150.683 4.7075 149.988 4.10487 149.19 3.653C148.392 3.20112 147.507 2.90937 146.588 2.79533C145.669 2.68129 144.736 2.74733 143.844 2.98949C142.953 3.23164 142.122 3.6449 141.401 4.20427C140.68 4.76364 140.085 5.45753 139.651 6.24408C139.217 7.03064 138.954 7.89353 138.877 8.78066C138.799 9.6678 138.91 10.5608 139.202 11.4057C137.679 12.4166 136.435 13.7673 135.576 15.3421C134.716 16.9168 134.267 18.6684 134.267 20.4465C134.267 22.2247 134.716 23.9763 135.576 25.551C136.435 27.1257 137.679 28.4765 139.202 29.4874C138.737 30.7679 138.737 32.1617 139.202 33.4423C138.053 34.2127 137.059 35.1773 136.268 36.2889C135.843 34.8088 134.893 33.5183 133.581 32.6415C132.27 31.7647 130.68 31.357 129.088 31.4892C127.497 31.6214 126.003 32.2852 124.868 33.3652C123.732 34.4453 123.026 35.8734 122.872 37.4015C121.953 36.8839 120.96 36.4983 119.924 36.2569C121.782 35.0785 123.244 33.4086 124.136 31.4487C129.746 31.361 134.267 27.4634 134.267 22.6502C134.267 17.782 129.647 13.8356 123.948 13.8356C122.7 13.8409 121.461 14.0436 120.281 14.4356C120.069 13.5689 119.677 12.7524 119.128 12.0354C118.579 11.3185 117.884 10.7158 117.086 10.264C116.288 9.81208 115.402 9.52033 114.484 9.40629C113.565 9.29225 112.632 9.3583 111.74 9.60045C110.849 9.84261 110.018 10.2558 109.297 10.8152C108.576 11.3746 107.981 12.0685 107.547 12.855C107.113 13.6416 106.85 14.5045 106.772 15.3916C106.695 16.2788 106.806 17.1717 107.097 18.0166C106.95 18.115 106.818 18.2306 106.676 18.3353C106.318 18.3033 105.97 18.2429 105.603 18.2429C104.354 18.2482 103.115 18.4509 101.936 18.8429C101.892 18.6766 101.821 18.5224 101.765 18.3614C101.987 17.3803 101.969 16.3632 101.713 15.3898C101.457 14.4165 100.97 13.5134 100.289 12.7516C99.6086 11.9898 98.7536 11.39 97.7912 10.9993C96.8288 10.6086 95.7853 10.4376 94.7425 10.4998C94.1454 8.90188 93.1717 7.4583 91.8976 6.28202C90.6235 5.10573 89.0835 4.22862 87.3981 3.71927C85.7126 3.20993 83.9274 3.08216 82.1821 3.34595C80.4367 3.60974 78.7785 4.25793 77.3371 5.23986C75.8957 6.22178 74.7103 7.5108 73.8734 9.00613C73.0365 10.5015 72.571 12.1626 72.5131 13.8595C72.4552 15.5565 72.8067 17.2433 73.5399 18.788C74.2731 20.3328 75.3682 21.6936 76.7396 22.7641C75.9506 22.8511 75.1727 23.0139 74.4176 23.2502C74.1465 22.1758 73.5968 21.1848 72.8198 20.3695C72.0428 19.5542 71.0638 18.9411 69.9738 18.5873C68.8839 18.2335 67.7185 18.1506 66.5862 18.3461C65.4539 18.5417 64.3915 19.0095 63.4979 19.7058C62.476 18.5394 61.1974 17.6055 59.7543 16.9714C58.3113 16.3374 56.7398 16.019 55.1532 16.0392C53.9048 16.0445 52.6659 16.2473 51.486 16.6392C51.2743 15.7726 50.8821 14.9561 50.333 14.2391C49.7838 13.5221 49.0892 12.9195 48.291 12.4676C47.4929 12.0158 46.6077 11.724 45.6889 11.6099C44.7702 11.4959 43.8369 11.562 42.9454 11.8041C42.0539 12.0463 41.2228 12.4595 40.5021 13.0189C39.7814 13.5783 39.1862 14.2722 38.7523 15.0587C38.3184 15.8453 38.0549 16.7081 37.9776 17.5953C37.9003 18.4824 38.0109 19.3754 38.3027 20.2203C36.7807 21.2315 35.5367 22.5823 34.6772 24.157C33.8178 25.7316 33.3686 27.4831 33.3682 29.2612C33.3682 29.2953 33.3784 29.3267 33.3787 29.3607C31.7526 29.1239 30.0904 29.2964 28.5544 29.8612C28.3427 28.9945 27.9505 28.178 27.4014 27.4611C26.8522 26.7441 26.1576 26.1415 25.3594 25.6896C24.5613 25.2378 23.6761 24.946 22.7573 24.832C21.8386 24.7179 20.9053 24.784 20.0139 25.0261C19.1224 25.2683 18.2913 25.6815 17.5706 26.2409C16.8499 26.8003 16.2547 27.4941 15.8208 28.2807C15.3869 29.0672 15.1234 29.9301 15.0461 30.8172C14.9688 31.7044 15.0794 32.5973 15.3711 33.4423C13.1596 34.881 11.5428 37.0191 10.8018 39.4847C10.0609 41.9504 10.2428 44.5877 11.3158 46.9378C12.3888 49.288 14.2851 51.2024 16.6749 52.3481C19.0647 53.4937 21.7968 53.7982 24.396 53.2086C24.8099 55.5076 25.9752 57.6202 27.7229 59.2399C29.4706 60.8595 31.7098 61.902 34.1157 62.2161C36.5216 62.5302 38.969 62.0995 41.103 60.9867C43.237 59.8738 44.9466 58.1365 45.9838 56.0269C46.923 57.9366 48.4155 59.5455 50.2823 60.6607C52.1491 61.7759 54.3109 62.3501 56.5087 62.3144C58.7065 62.2788 60.8469 61.6347 62.6734 60.4596C64.5 59.2844 65.935 57.628 66.8067 55.6889C68.1578 55.6707 69.4949 55.4219 70.7556 54.9542C71.5135 57.0416 72.9096 58.8604 74.7611 60.1727C76.6125 61.485 78.8331 62.2295 81.1322 62.3089C83.4313 62.3883 85.7018 61.7988 87.6465 60.6176C89.5912 59.4365 91.1195 57.7186 92.0314 55.6889C93.7033 55.657 95.3466 55.2662 96.8411 54.5452C97.8875 56.3225 99.4294 57.7838 101.293 58.7645C103.157 59.7453 105.269 60.2066 107.391 60.0964C109.512 59.9862 111.56 59.309 113.303 58.141C115.046 56.973 116.415 55.3605 117.256 53.4852C117.871 53.4708 118.485 53.4091 119.09 53.3008C119.948 55.3006 121.4 57.013 123.265 58.2244C125.129 59.4357 127.324 60.0922 129.575 60.1119C131.826 60.1315 134.033 59.5135 135.92 58.335C137.808 57.1564 139.292 55.4696 140.188 53.4852C141.088 53.4608 141.983 53.3341 142.852 53.1076C145.157 53.7249 147.607 53.6153 149.842 52.7951C152.077 51.9749 153.979 50.4873 155.269 48.5509C154.548 51.2344 154.907 54.0802 156.273 56.5207C157.64 58.9612 159.913 60.817 162.64 61.7179C165.368 62.6187 168.348 62.4984 170.987 61.3809C173.626 60.2634 175.73 58.2309 176.878 55.6889C178.55 55.657 180.193 55.2662 181.688 54.5452C182.734 56.3225 184.276 57.7838 186.14 58.7645C188.004 59.7453 190.116 60.2066 192.237 60.0964C194.359 59.9862 196.407 59.309 198.15 58.141C199.893 56.973 201.262 55.3605 202.103 53.4852C203.775 53.4533 205.418 53.0626 206.913 52.3416C207.719 53.7224 208.829 54.9179 210.165 55.8449C211.501 56.7719 213.031 57.4082 214.648 57.7095C216.266 58.0108 217.933 57.9699 219.532 57.5896C221.132 57.2094 222.626 56.4989 223.911 55.5076C224.309 57.6156 225.341 59.5655 226.879 61.1166C228.416 62.6677 230.393 63.7521 232.565 64.2361C234.737 64.7201 237.009 64.5824 239.1 63.84C241.192 63.0977 243.011 61.7832 244.334 60.0587C245.71 61.0722 247.309 61.7704 249.009 62.0999C250.708 62.4295 252.464 62.3816 254.141 61.9601C255.819 61.5386 257.374 60.7546 258.688 59.6678C260.003 58.5809 261.041 57.2201 261.725 55.6889C267.336 55.6012 271.857 51.7036 271.857 46.8904C271.857 42.0222 267.237 38.0758 261.537 38.0758ZM56.5791 33.5278C56.5671 33.5809 56.5587 33.6354 56.5474 33.6889C56.4637 33.686 56.3843 33.6685 56.2998 33.6685C55.9571 33.6768 55.6156 33.7099 55.278 33.7675C55.2966 33.7278 55.3228 33.6923 55.3409 33.6524C55.7557 33.6325 56.1691 33.5909 56.5791 33.5278ZM152.385 29.8612C152.352 29.7329 152.294 29.6149 152.253 29.4897C154.004 28.3231 155.384 26.7128 156.24 24.8377C157.748 24.83 159.237 24.5171 160.611 23.9193C161.985 23.3216 163.212 22.4524 164.213 21.3684C164.125 21.7905 164.08 22.2198 164.078 22.6503C164.088 23.3227 164.205 23.9897 164.426 24.6277C162.458 25.9468 160.967 27.8244 160.164 29.9979C157.67 29.065 154.912 29.0166 152.385 29.8612V29.8612ZM221.066 30.6828C221.061 30.5478 221.079 30.4086 221.07 30.2745C221.362 30.2734 221.654 30.2544 221.943 30.2175C222.388 31.6432 223.132 32.9666 224.128 34.1063C223.911 34.1646 223.684 34.1998 223.473 34.2685C223.102 32.8515 222.257 31.5913 221.066 30.6828Z" fill="#F6C700"/>
<path d="M24.3635 51.2977C21.1108 51.2974 17.8921 51.9341 14.9039 53.1688C11.9158 54.4035 9.22071 56.2103 6.98324 58.4791C4.74577 60.7478 3.01282 63.4309 1.89012 66.3645C0.767427 69.2982 0.278533 72.4209 0.45328 75.5422L15.9814 280.736C16.3088 286.617 18.9707 292.154 23.4189 296.205C27.8671 300.257 33.7628 302.515 39.8916 302.514H240.108C246.237 302.515 252.133 300.257 256.581 296.205C261.029 292.154 263.691 286.617 264.019 280.736L279.547 75.5422C279.721 72.4209 279.233 69.2982 278.11 66.3645C276.987 63.4309 275.254 60.7478 273.017 58.4791C270.779 56.2103 268.084 54.4035 265.096 53.1688C262.108 51.9341 258.889 51.2974 255.636 51.2977H24.3635Z" fill="#3F3D56" fill-opacity="0.4"/>
</svg>
