<svg width="223" height="363" viewBox="0 0 223 363" fill="none" xmlns="http://www.w3.org/2000/svg">
<rect width="223" height="363" fill="#ECECEC"/>
<path d="M74 85H78.6233L124.667 125.894V130H74V85ZM50.3766 45.625L42.3333 52.7687L55 64.075C51.2633 65.9875 48.6666 69.5875 48.6666 73.75V141.25C48.6666 144.234 50.0012 147.095 52.3766 149.205C54.7521 151.315 57.9739 152.5 61.3333 152.5H154.623L167.29 163.75L175.333 156.606L50.3766 45.625ZM162.667 62.5H85.5267L110.86 85H124.667V97.2625L128.277 100.469L150 85V119.763L175.333 142.206V73.75C175.333 70.7663 173.999 67.9048 171.623 65.795C169.248 63.6853 166.026 62.5 162.667 62.5V62.5Z" fill="#F6C700"/>
<path d="M65.442 211.208L62.946 210.824V209.224H67.202C67.97 209.224 68.7273 209.192 69.474 209.128C70.626 209.043 71.714 209 72.738 209C75.8313 209.021 78.018 209.597 79.298 210.728C80.578 211.859 81.218 213.565 81.218 215.848C81.218 217.555 80.8233 219.037 80.034 220.296C79.2447 221.555 78.146 222.515 76.738 223.176C75.3513 223.837 73.7513 224.168 71.938 224.168C71.3193 224.168 70.69 224.157 70.05 224.136C69.41 224.093 69.0153 224.061 68.866 224.04V231.08L73.25 231.432V233H62.786V231.432L65.442 231.112V211.208ZM68.866 222.28C69.4633 222.387 70.4873 222.44 71.938 222.44C73.6233 222.44 74.9887 221.928 76.034 220.904C77.1007 219.88 77.634 218.205 77.634 215.88C77.634 214.045 77.1753 212.733 76.258 211.944C75.3407 211.133 73.9113 210.728 71.97 210.728C71.2873 210.728 70.562 210.771 69.794 210.856C69.3247 210.899 69.0153 210.92 68.866 210.92V222.28ZM83.4713 224.072C83.4713 222.152 83.8659 220.488 84.6553 219.08C85.4446 217.672 86.4793 216.605 87.7593 215.88C89.0606 215.133 90.4473 214.76 91.9193 214.76C94.6073 214.76 96.6233 215.613 97.9673 217.32C99.3326 219.027 100.015 221.267 100.015 224.04C100.015 225.981 99.6206 227.656 98.8313 229.064C98.0419 230.472 96.9966 231.539 95.6953 232.264C94.4153 232.989 93.0393 233.352 91.5673 233.352C88.8793 233.352 86.8526 232.499 85.4873 230.792C84.1433 229.085 83.4713 226.845 83.4713 224.072ZM91.7593 231.528C93.2313 231.528 94.3619 230.92 95.1513 229.704C95.9406 228.488 96.3353 226.685 96.3353 224.296C96.3353 221.928 95.9726 220.051 95.2473 218.664C94.5219 217.277 93.3593 216.584 91.7593 216.584C90.2873 216.584 89.1459 217.192 88.3353 218.408C87.5459 219.624 87.1513 221.427 87.1513 223.816C87.1513 226.184 87.5246 228.061 88.2713 229.448C89.0179 230.835 90.1806 231.528 91.7593 231.528ZM105.916 230.44C106.129 230.76 106.577 231.048 107.26 231.304C107.964 231.56 108.7 231.688 109.468 231.688C110.684 231.688 111.58 231.453 112.156 230.984C112.732 230.515 113.02 229.864 113.02 229.032C113.02 228.456 112.839 227.955 112.476 227.528C112.113 227.101 111.601 226.728 110.94 226.408C110.3 226.067 109.372 225.661 108.156 225.192C106.513 224.573 105.308 223.837 104.54 222.984C103.793 222.109 103.42 220.968 103.42 219.56C103.42 218.621 103.697 217.8 104.252 217.096C104.828 216.392 105.607 215.848 106.588 215.464C107.591 215.059 108.7 214.856 109.916 214.856C110.897 214.856 111.751 214.931 112.476 215.08C113.223 215.229 113.82 215.379 114.268 215.528C114.716 215.677 115.015 215.773 115.164 215.816V219.784H113.212L112.572 217.416C112.444 217.16 112.103 216.947 111.548 216.776C110.993 216.584 110.375 216.488 109.692 216.488C108.732 216.488 107.953 216.701 107.356 217.128C106.78 217.555 106.492 218.131 106.492 218.856C106.492 219.496 106.641 220.029 106.94 220.456C107.26 220.861 107.655 221.192 108.124 221.448C108.593 221.704 109.233 222.003 110.044 222.344L110.684 222.6C111.879 223.069 112.849 223.517 113.596 223.944C114.343 224.371 114.961 224.936 115.452 225.64C115.964 226.323 116.22 227.165 116.22 228.168C116.22 229.747 115.601 231.005 114.364 231.944C113.148 232.883 111.473 233.352 109.34 233.352C108.295 233.352 107.196 233.213 106.044 232.936C104.913 232.637 103.985 232.339 103.26 232.04V227.944H105.34L105.916 230.44ZM124.568 233.32C123.352 233.32 122.446 233.043 121.848 232.488C121.251 231.933 120.952 230.984 120.952 229.64V217.352H118.648V215.912C118.755 215.891 119.054 215.816 119.544 215.688C120.035 215.56 120.366 215.443 120.536 215.336C120.878 215.144 121.144 214.76 121.336 214.184C121.507 213.779 121.71 213.128 121.944 212.232C122.179 211.336 122.318 210.803 122.36 210.632H124.248L124.312 215.24H129.656V217.352H124.312V227.176C124.312 228.392 124.344 229.245 124.408 229.736C124.494 230.227 124.654 230.547 124.888 230.696C125.144 230.845 125.571 230.92 126.168 230.92C126.744 230.92 127.374 230.845 128.056 230.696C128.76 230.547 129.304 230.387 129.688 230.216L130.168 231.656C129.656 232.04 128.824 232.413 127.672 232.776C126.542 233.139 125.507 233.32 124.568 233.32ZM140 233.352C137.418 233.352 135.445 232.509 134.08 230.824C132.736 229.139 132.064 226.888 132.064 224.072C132.064 222.216 132.416 220.584 133.12 219.176C133.824 217.768 134.805 216.68 136.064 215.912C137.344 215.144 138.794 214.76 140.416 214.76C142.4 214.76 143.936 215.315 145.024 216.424C146.133 217.512 146.72 219.08 146.784 221.128C146.784 222.429 146.709 223.421 146.56 224.104H135.552C135.594 226.216 136.085 227.923 137.024 229.224C137.962 230.504 139.296 231.144 141.024 231.144C141.877 231.144 142.762 230.995 143.68 230.696C144.618 230.376 145.344 230.003 145.856 229.576L146.464 230.984C145.845 231.624 144.928 232.179 143.712 232.648C142.496 233.117 141.258 233.352 140 233.352ZM143.264 222.408C143.328 221.96 143.36 221.501 143.36 221.032C143.338 219.645 143.04 218.557 142.464 217.768C141.909 216.957 141.024 216.552 139.808 216.552C138.57 216.552 137.578 217 136.832 217.896C136.106 218.792 135.69 220.296 135.584 222.408H143.264ZM149.598 231.432L151.998 231.24V217.704L149.694 217.128V215.4L154.11 214.824H154.174L154.878 215.4V215.976L154.782 218.472H154.878C155.091 218.109 155.475 217.64 156.03 217.064C156.584 216.488 157.299 215.965 158.174 215.496C159.048 215.005 159.998 214.76 161.022 214.76C161.448 214.76 161.8 214.813 162.078 214.92V218.504C161.928 218.397 161.683 218.301 161.342 218.216C161.022 218.109 160.659 218.056 160.254 218.056C158.483 218.056 156.84 218.6 155.326 219.688V231.208L159.39 231.464V233H149.598V231.432ZM88.485 257.704L86.181 257.128V255.4L90.757 254.824H90.853L91.525 255.4V256.744L91.493 257.512C92.261 256.829 93.2743 256.211 94.533 255.656C95.7917 255.101 96.997 254.824 98.149 254.824C99.493 254.824 100.528 255.08 101.253 255.592C102 256.104 102.522 256.893 102.821 257.96C103.12 259.005 103.269 260.424 103.269 262.216V271.176L105.509 271.4V273H97.925V271.432L99.909 271.176V262.184C99.909 260.925 99.8237 259.944 99.653 259.24C99.4823 258.515 99.1623 257.981 98.693 257.64C98.2237 257.277 97.541 257.096 96.645 257.096C95.877 257.096 95.0557 257.288 94.181 257.672C93.3063 258.056 92.5277 258.504 91.845 259.016V271.144L94.021 271.432V273H86.469V271.432L88.485 271.144V257.704ZM107.815 264.072C107.815 262.152 108.21 260.488 108.999 259.08C109.788 257.672 110.823 256.605 112.103 255.88C113.404 255.133 114.791 254.76 116.263 254.76C118.951 254.76 120.967 255.613 122.311 257.32C123.676 259.027 124.359 261.267 124.359 264.04C124.359 265.981 123.964 267.656 123.175 269.064C122.386 270.472 121.34 271.539 120.039 272.264C118.759 272.989 117.383 273.352 115.911 273.352C113.223 273.352 111.196 272.499 109.831 270.792C108.487 269.085 107.815 266.845 107.815 264.072ZM116.103 271.528C117.575 271.528 118.706 270.92 119.495 269.704C120.284 268.488 120.679 266.685 120.679 264.296C120.679 261.928 120.316 260.051 119.591 258.664C118.866 257.277 117.703 256.584 116.103 256.584C114.631 256.584 113.49 257.192 112.679 258.408C111.89 259.624 111.495 261.427 111.495 263.816C111.495 266.184 111.868 268.061 112.615 269.448C113.362 270.835 114.524 271.528 116.103 271.528ZM132.756 273.32C131.54 273.32 130.633 273.043 130.036 272.488C129.438 271.933 129.14 270.984 129.14 269.64V257.352H126.836V255.912C126.942 255.891 127.241 255.816 127.732 255.688C128.222 255.56 128.553 255.443 128.724 255.336C129.065 255.144 129.332 254.76 129.524 254.184C129.694 253.779 129.897 253.128 130.132 252.232C130.366 251.336 130.505 250.803 130.548 250.632H132.436L132.5 255.24H137.844V257.352H132.5V267.176C132.5 268.392 132.532 269.245 132.596 269.736C132.681 270.227 132.841 270.547 133.076 270.696C133.332 270.845 133.758 270.92 134.356 270.92C134.932 270.92 135.561 270.845 136.244 270.696C136.948 270.547 137.492 270.387 137.876 270.216L138.356 271.656C137.844 272.04 137.012 272.413 135.86 272.776C134.729 273.139 133.694 273.32 132.756 273.32ZM43.0338 308.2C43.0338 306.195 44.0364 304.723 46.0418 303.784C48.0471 302.824 50.5858 302.312 53.6578 302.248V301.352C53.6578 300.349 53.5511 299.56 53.3378 298.984C53.1244 298.408 52.7511 297.992 52.2178 297.736C51.7058 297.459 50.9698 297.32 50.0098 297.32C48.9218 297.32 47.9404 297.48 47.0658 297.8C46.2124 298.099 45.3591 298.472 44.5058 298.92L43.7057 297.256C43.9831 297.021 44.4951 296.712 45.2418 296.328C45.9884 295.944 46.8524 295.603 47.8338 295.304C48.8151 295.005 49.7964 294.856 50.7778 294.856C52.2924 294.856 53.4871 295.069 54.3618 295.496C55.2578 295.901 55.8978 296.563 56.2818 297.48C56.6658 298.397 56.8578 299.624 56.8578 301.16V311.432H58.7458V312.84C58.3191 312.947 57.7751 313.053 57.1138 313.16C56.4738 313.267 55.9084 313.32 55.4178 313.32C54.8204 313.32 54.4151 313.224 54.2018 313.032C53.9884 312.861 53.8818 312.467 53.8818 311.848V310.792C53.2418 311.432 52.4524 312.019 51.5138 312.552C50.5964 313.085 49.5511 313.352 48.3778 313.352C46.8418 313.352 45.5618 312.915 44.5378 312.04C43.5351 311.144 43.0338 309.864 43.0338 308.2ZM49.7538 311.176C50.3084 311.176 50.9484 311.005 51.6738 310.664C52.3991 310.323 53.0604 309.917 53.6578 309.448V303.944C51.3324 303.944 49.5724 304.307 48.3778 305.032C47.2044 305.736 46.6178 306.664 46.6178 307.816C46.6178 308.968 46.8951 309.821 47.4498 310.376C48.0258 310.909 48.7938 311.176 49.7538 311.176ZM59.4992 295.24H66.9233V296.744L64.6513 297.16L67.8833 306.376L69.2273 310.44L70.3793 306.504L73.6113 297.16L71.4353 296.744V295.24H77.9313V296.744L76.2673 297.16L70.0913 313.256H67.3713L60.9393 297.16L59.4992 296.744V295.24ZM79.1588 308.2C79.1588 306.195 80.1614 304.723 82.1668 303.784C84.1721 302.824 86.7108 302.312 89.7828 302.248V301.352C89.7828 300.349 89.6761 299.56 89.4628 298.984C89.2494 298.408 88.8761 297.992 88.3428 297.736C87.8308 297.459 87.0948 297.32 86.1348 297.32C85.0468 297.32 84.0654 297.48 83.1908 297.8C82.3374 298.099 81.4841 298.472 80.6308 298.92L79.8307 297.256C80.1081 297.021 80.6201 296.712 81.3668 296.328C82.1134 295.944 82.9774 295.603 83.9588 295.304C84.9401 295.005 85.9214 294.856 86.9028 294.856C88.4174 294.856 89.6121 295.069 90.4868 295.496C91.3828 295.901 92.0228 296.563 92.4068 297.48C92.7908 298.397 92.9828 299.624 92.9828 301.16V311.432H94.8708V312.84C94.4441 312.947 93.9001 313.053 93.2388 313.16C92.5988 313.267 92.0334 313.32 91.5428 313.32C90.9454 313.32 90.5401 313.224 90.3268 313.032C90.1134 312.861 90.0068 312.467 90.0068 311.848V310.792C89.3668 311.432 88.5774 312.019 87.6388 312.552C86.7214 313.085 85.6761 313.352 84.5028 313.352C82.9668 313.352 81.6868 312.915 80.6628 312.04C79.6601 311.144 79.1588 309.864 79.1588 308.2ZM85.8788 311.176C86.4334 311.176 87.0734 311.005 87.7988 310.664C88.5241 310.323 89.1854 309.917 89.7828 309.448V303.944C87.4574 303.944 85.6974 304.307 84.5028 305.032C83.3294 305.736 82.7428 306.664 82.7428 307.816C82.7428 308.968 83.0201 309.821 83.5748 310.376C84.1508 310.909 84.9188 311.176 85.8788 311.176ZM100.872 292.04C100.19 292.04 99.6776 291.848 99.3363 291.464C98.9949 291.08 98.8243 290.589 98.8243 289.992C98.8243 289.309 99.0269 288.744 99.4323 288.296C99.8589 287.848 100.435 287.624 101.16 287.624C101.886 287.624 102.419 287.816 102.76 288.2C103.102 288.584 103.272 289.075 103.272 289.672C103.272 290.397 103.059 290.973 102.632 291.4C102.227 291.827 101.651 292.04 100.904 292.04H100.872ZM99.5923 297.704L97.1603 297.128V295.432L102.12 294.824H102.184L102.92 295.4V311.176L105.48 311.432V313H97.0003V311.432L99.5923 311.144V297.704ZM110.089 289.128L107.497 288.776V287.4L112.649 286.792H112.713L113.417 287.272V311.176L116.137 311.432V313H107.497V311.432L110.089 311.144V289.128ZM118.409 308.2C118.409 306.195 119.411 304.723 121.417 303.784C123.422 302.824 125.961 302.312 129.033 302.248V301.352C129.033 300.349 128.926 299.56 128.713 298.984C128.499 298.408 128.126 297.992 127.593 297.736C127.081 297.459 126.345 297.32 125.385 297.32C124.297 297.32 123.315 297.48 122.441 297.8C121.587 298.099 120.734 298.472 119.881 298.92L119.081 297.256C119.358 297.021 119.87 296.712 120.617 296.328C121.363 295.944 122.227 295.603 123.209 295.304C124.19 295.005 125.171 294.856 126.153 294.856C127.667 294.856 128.862 295.069 129.737 295.496C130.633 295.901 131.273 296.563 131.657 297.48C132.041 298.397 132.233 299.624 132.233 301.16V311.432H134.121V312.84C133.694 312.947 133.15 313.053 132.489 313.16C131.849 313.267 131.283 313.32 130.793 313.32C130.195 313.32 129.79 313.224 129.577 313.032C129.363 312.861 129.257 312.467 129.257 311.848V310.792C128.617 311.432 127.827 312.019 126.889 312.552C125.971 313.085 124.926 313.352 123.753 313.352C122.217 313.352 120.937 312.915 119.913 312.04C118.91 311.144 118.409 309.864 118.409 308.2ZM125.129 311.176C125.683 311.176 126.323 311.005 127.049 310.664C127.774 310.323 128.435 309.917 129.033 309.448V303.944C126.707 303.944 124.947 304.307 123.753 305.032C122.579 305.736 121.993 306.664 121.993 307.816C121.993 308.968 122.27 309.821 122.825 310.376C123.401 310.909 124.169 311.176 125.129 311.176ZM134.842 287.4L139.962 286.792H140.026L140.762 287.272V296.904C141.402 296.285 142.16 295.773 143.034 295.368C143.93 294.963 144.922 294.76 146.01 294.76C147.29 294.76 148.453 295.069 149.498 295.688C150.565 296.307 151.408 297.267 152.026 298.568C152.666 299.869 152.986 301.512 152.986 303.496C152.986 305.331 152.602 306.995 151.834 308.488C151.088 309.981 150.01 311.165 148.602 312.04C147.194 312.915 145.562 313.352 143.706 313.352C142.234 313.352 140.89 313.213 139.674 312.936C138.458 312.637 137.722 312.371 137.466 312.136V289.096L134.842 288.744V287.4ZM144.698 297.032C143.888 297.032 143.13 297.224 142.426 297.608C141.744 297.971 141.189 298.387 140.762 298.856V310.632C140.89 310.931 141.253 311.176 141.85 311.368C142.469 311.539 143.162 311.624 143.93 311.624C145.573 311.624 146.896 310.963 147.898 309.64C148.901 308.317 149.402 306.387 149.402 303.848C149.402 301.565 148.965 299.859 148.09 298.728C147.216 297.597 146.085 297.032 144.698 297.032ZM158.12 289.128L155.528 288.776V287.4L160.68 286.792H160.744L161.448 287.272V311.176L164.168 311.432V313H155.528V311.432L158.12 311.144V289.128ZM174.312 313.352C171.731 313.352 169.757 312.509 168.392 310.824C167.048 309.139 166.376 306.888 166.376 304.072C166.376 302.216 166.728 300.584 167.432 299.176C168.136 297.768 169.117 296.68 170.376 295.912C171.656 295.144 173.107 294.76 174.728 294.76C176.712 294.76 178.248 295.315 179.336 296.424C180.445 297.512 181.032 299.08 181.096 301.128C181.096 302.429 181.021 303.421 180.872 304.104H169.864C169.907 306.216 170.397 307.923 171.336 309.224C172.275 310.504 173.608 311.144 175.336 311.144C176.189 311.144 177.075 310.995 177.992 310.696C178.931 310.376 179.656 310.003 180.168 309.576L180.776 310.984C180.157 311.624 179.24 312.179 178.024 312.648C176.808 313.117 175.571 313.352 174.312 313.352ZM177.576 302.408C177.64 301.96 177.672 301.501 177.672 301.032C177.651 299.645 177.352 298.557 176.776 297.768C176.221 296.957 175.336 296.552 174.12 296.552C172.883 296.552 171.891 297 171.144 297.896C170.419 298.792 170.003 300.296 169.896 302.408H177.576Z" fill="#F6C700"/>
</svg>
